{
.appVersion = "3151";
.formatVersion = 3;
customParameters = (
{
name = vendorID;
value = ADBO;
},
{
name = panose;
value = (
2,
11,
2,
0,
0,
0,
0,
0,
0,
0
);
},
{
name = unicodeRanges;
value = (
0,
1,
7,
29,
36,
42,
43,
44,
45,
48,
49,
50,
51,
52,
54,
55,
57,
59,
61,
65,
66,
68
);
},
{
name = codePageRanges;
value = (
"1252",
"1250",
"1251",
"1258",
"932",
"936",
"bit 29",
"bit 30"
);
},
{
name = fsType;
value = (
);
}
);
date = "2021-04-29 08:43:11 +0000";
familyName = "Yaku Han JP";
featurePrefixes = (
{
automatic = 1;
code = "languagesystem DFLT dflt;
";
name = Languagesystems;
}
);
features = (
{
automatic = 1;
code = "feature vert;
feature vrt2;
";
tag = aalt;
},
{
code = "sub comma-han by comma-han.vert;
sub period-han by period-han.vert;
sub colon.full by colon.full.vert;
sub blacklenticularbracketleft by blacklenticularbracketleft.vert;
sub blacklenticularbracketright by blacklenticularbracketright.vert;
sub cornerbracketleft by cornerbracketleft.vert;
sub cornerbracketright by cornerbracketright.vert;
sub dblanglebracketleft by dblanglebracketleft.vert;
sub dblanglebracketright by dblanglebracketright.vert;
sub tortoiseshellbracketleft by tortoiseshellbracketleft.vert;
sub tortoiseshellbracketright by tortoiseshellbracketright.vert;
sub whitecornerbracketleft by whitecornerbracketleft.vert;
sub whitecornerbracketright by whitecornerbracketright.vert;
sub whitelenticularbracketleft by whitelenticularbracketleft.vert;
sub whitelenticularbracketright by whitelenticularbracketright.vert;
sub braceleft.full by braceleft.full.vert;
sub braceright.full by braceright.full.vert;
sub bracketleft.full by bracketleft.full.vert;
sub bracketright.full by bracketright.full.vert;
sub parenleft.full by parenleft.full.vert;
sub parenright.full by parenright.full.vert;
sub angleLeft by anglebracketleft.vert;
sub angleRight by anglebracketright.vert;";
tag = vert;
},
{
automatic = 1;
code = "sub comma-han by comma-han.vert;
sub period-han by period-han.vert;

glyphs = (
{
glyphname = .notdef;
lastChange = "2023-08-27 12:29:13 +0000";
layers = (
{
layerId = m01;
shapes = (
{
closed = 1;
nodes = (
(900,880,l),
(100,880,l),
(100,-120,l),
(900,-120,l)
);
},
{
closed = 1;
nodes = (
(818,830,l),
(500,421,l),
(182,830,l)
);
},
{
closed = 1;
nodes = (
(850,-29,l),
(532,380,l),
(850,789,l)
);
},
{
closed = 1;
nodes = (
(818,-70,l),
(182,-70,l),
(500,339,l)
);
},
{
closed = 1;
nodes = (
(150,-29,l),
(150,789,l),
(468,380,l)
);
}
);
vertWidth = 1000;
width = 1000;
}
);
note = ".notdef";
},
{
glyphname = "comma-han";
lastChange = "2023-08-27 12:29:13 +0000";
layers = (
{
layerId = m01;
shapes = (
{
closed = 1;
nodes = (
(352,63,o),
(278,143,o),
(195,223,o),
(160,252,q),
(33,143,l),
(68,113,o),
(143,38,o),
(216,-40,o),
(245,-76,q),
(374,35,l)
);
}
);
vertWidth = 1000;
width = 1000;
}
);
note = uni3001;
unicode = 12289;
},
{
glyphname = "comma-han.vert";
lastChange = "2023-08-27 12:29:13 +0000";
layers = (
{
layerId = m01;
shapes = (
{
closed = 1;
nodes = (
(939,661,o),
(866,739,o),
(785,817,o),
(751,845,q),
(626,739,l),
(677,694,o),
(791,577,o),
(834,524,q),
(961,633,l)
);
}
);
vertWidth = 1000;
width = 1000;
}
);
note = uniFE11;
unicode = 65041;
},
{
glyphname = "period-han";
lastChange = "2023-08-27 12:29:13 +0000";
layers = (
{
layerId = m01;
shapes = (
{
closed = 1;
nodes = (
(71,205,o),
(26,129,o),
(26,83,qs),
(26,37,o),
(71,-39,o),
(147,-84,o),
(193,-84,qs),
(240,-84,o),
(315,-39,o),
(360,37,o),
(360,83,qs),
(360,129,o),
(315,205,o),
(240,250,o),
(193,250,qs),
(147,250,o)
);
},
{
closed = 1;
nodes = (
(133,22,o),
(110,60,o),
(110,83,qs),
(110,106,o),
(133,144,o),
(171,166,o),
(193,166,qs),
(216,166,o),
(254,144,o),
(276,106,o),
(276,83,qs),
(276,49,o),
(228,0,o),
(193,0,qs),
(171,0,o)
);
}
);
vertWidth = 1000;
width = 1000;
}
);
note = uni3002;
unicode = 12290;
},
{
glyphname = "period-han.vert";
lastChange = "2023-08-27 12:29:13 +0000";
layers = (
{
layerId = m01;
shapes = (
{
closed = 1;
nodes = (
(675,786,o),
(630,711,o),
(630,666,qs),
(630,621,o),
(675,547,o),
(749,502,o),
(794,502,qs),
(840,502,o),
(914,547,o),
(958,621,o),
(958,666,qs),
(958,711,o),
(914,786,o),
(840,830,o),
(794,830,qs),
(749,830,o)
);
},
{
closed = 1;
nodes = (
(735,607,o),
(713,644,o),
(713,666,qs),
(713,689,o),
(735,725,o),
(772,747,o),
(794,747,qs),
(817,747,o),
(853,725,o),
(875,689,o),
(875,666,qs),
(875,632,o),
(828,585,o),
(794,585,qs),
(772,585,o)
);
}
);
vertWidth = 1000;
width = 1000;
}
);
note = uniFE12;
unicode = 65042;
},
{
glyphname = hyphenationpoint;
lastChange = "2023-08-27 12:29:13 +0000";
layers = (
{
layerId = m01;
shapes = (
{
closed = 1;
nodes = (
(398,482,o),
(360,419,o),
(360,380,qs),
(360,342,o),
(398,278,o),
(462,240,o),
(500,240,qs),
(539,240,o),
(602,278,o),
(640,342,o),
(640,380,qs),
(640,419,o),
(602,482,o),
(539,520,o),
(500,520,qs),
(462,520,o)
);
}
);
vertWidth = 1000;
width = 1000;
}
);
note = uni2027;
unicode = (8231,12539);
},
{
glyphname = colon.full;
lastChange = "2023-08-27 12:29:13 +0000";
layers = (
{
layerId = m01;
shapes = (
{
closed = 1;
nodes = (
(606,561,o),
(606,604,qs),
(606,649,o),
(545,710,o),
(500,710,qs),
(455,710,o),
(394,649,o),
(394,604,qs),
(394,561,o),
(455,500,o),
(500,500,qs),
(545,500,o)
);
},
{
closed = 1;
nodes = (
(606,91,o),
(606,134,qs),
(606,179,o),
(545,240,o),
(500,240,qs),
(455,240,o),
(394,179,o),
(394,134,qs),
(394,91,o),
(455,30,o),
(500,30,qs),
(545,30,o)
);
}
);
vertWidth = 1000;
width = 1000;
}
);
note = uniFF1A;
unicode = 65306;
},
{
glyphname = exclam.full;
lastChange = "2023-08-27 12:29:13 +0000";
layers = (
{
layerId = m01;
shapes = (
{
closed = 1;
nodes = (
(592,582,l),
(598,748,l),
(402,748,l),
(408,582,l),
(438,266,l),
(562,266,l)
);
},
{
closed = 1;
nodes = (
(602,46,o),
(602,90,qs),
(602,134,o),
(544,190,o),
(500,190,qs),
(456,190,o),
(398,134,o),
(398,90,qs),
(398,46,o),
(455,-12,o),
(500,-12,qs),
(544,-12,o)
);
}
);
vertWidth = 1000;
width = 1000;
}
);
note = uniFF01;
unicode = 65281;
},
{
glyphname = question.full;
lastChange = "2023-08-27 12:29:13 +0000";
layers = (
{
layerId = m01;
shapes = (
{
closed = 1;
nodes = (
(566,299,o),
(593,348,o),
(638,386,o),
(690,423,o),
(736,463,o),
(766,516,o),
(766,552,qs),
(766,624,o),
(696,716,o),
(578,760,o),
(504,760,qs),
(425,760,o),
(289,691,o),
(242,634,q),
(340,544,l),
(373,579,o),
(440,616,o),
(483,616,qs),
(516,616,o),
(567,599,o),
(596,564,o),
(596,536,qs),
(596,514,o),
(567,478,o),
(523,444,o),
(473,407,o),
(431,362,o),
(408,304,o),
(412,266,q),
(568,266,l)
);
},
{
closed = 1;
nodes = (
(592,46,o),
(592,90,qs),
(592,134,o),
(534,190,o),
(490,190,qs),
(446,190,o),
(388,134,o),
(388,90,qs),
(388,46,o),
(445,-12,o),
(490,-12,qs),
(534,-12,o)
);
}
);
vertWidth = 1000;
width = 1000;
}
);
note = uniFF1F;
unicode = 65311;
},
{
glyphname = semicolon.full;
lastChange = "2023-08-27 12:29:13 +0000";
layers = (
{
layerId = m01;
shapes = (
{
closed = 1;
nodes = (
(627,29,o),
(627,125,qs),
(627,203,o),
(564,291,o),
(505,291,qs),
(460,291,o),
(395,238,o),
(395,191,qs),
(395,143,o),
(461,89,o),
(502,89,qs),
(520,89,o),
(552,102,o),
(565,112,q),
(509,209,l),
(510,93,ls),
(511,50,o),
(443,-26,o),
(377,-49,q),
(415,-145,l),
(519,-113,o)
);
},
{
closed = 1;
nodes = (
(606,561,o),
(606,604,qs),
(606,649,o),
(545,710,o),
(500,710,qs),
(455,710,o),
(394,649,o),
(394,604,qs),
(394,561,o),
(455,500,o),
(500,500,qs),
(545,500,o)
);
}
);
vertWidth = 1000;
width = 1000;
}
);
note = uniFF1B;
unicode = 65307;
},
{
glyphname = colon.full.vert;
lastChange = "2023-08-27 12:29:13 +0000";
layers = (
{
layerId = m01;
shapes = (
{
closed = 1;
nodes = (
(371,326,o),
(371,371,qs),
(371,415,o),
(310,475,o),
(265,475,qs),
(220,475,o),
(159,415,o),
(159,371,qs),
(159,326,o),
(220,265,o),
(265,265,qs),
(310,265,o)
);
},
{
closed = 1;
nodes = (
(841,326,o),
(841,371,qs),
(841,415,o),
(780,475,o),
(735,475,qs),
(690,475,o),
(629,415,o),
(629,371,qs),
(629,326,o),
(690,265,o),
(735,265,qs),
(780,265,o)
);
}
);
vertWidth = 1000;
width = 1000;
}
);
note = glyph17776;
},
{
glyphname = angleLeft;
lastChange = "2023-08-27 12:29:13 +0000";
layers = (
{
layerId = m01;
shapes = (
{
closed = 1;
nodes = (
(945,805,l),
(826,855,l),
(545,380,l),
(826,-95,l),
(945,-45,l),
(694,380,l)
);
}
);
vertWidth = 1000;
width = 1000;
}
);
note = uni2329;
unicode = (9001,12296);
},
{
glyphname = angleRight;
lastChange = "2023-08-27 12:29:13 +0000";
layers = (
{
layerId = m01;
shapes = (
{
closed = 1;
nodes = (
(455,380,l),
(174,855,l),
(55,805,l),
(306,380,l),
(55,-45,l),
(174,-95,l)
);
}
);
vertWidth = 1000;
width = 1000;
}
);
note = uni3009;
unicode = (9002,12297);
},
{
glyphname = blacklenticularbracketleft;
lastChange = "2023-08-27 12:29:13 +0000";
layers = (
{
layerId = m01;
shapes = (
{
closed = 1;
nodes = (
(657,855,l),
(657,-95,l),
(975,-95,l),
(975,-90,l),
(921,-43,o),
(831,98,o),
(777,277,o),
(777,380,qs),
(777,484,o),
(831,662,o),
(921,803,o),
(975,850,q),
(975,855,l)
);
}
);
vertWidth = 1000;
width = 1000;
}
);
note = uni3010;
unicode = 12304;
},
{
glyphname = blacklenticularbracketright;
lastChange = "2023-08-27 12:29:13 +0000";
layers = (
{
layerId = m01;
shapes = (
{
closed = 1;
nodes = (
(25,855,l),
(25,850,l),
(80,803,o),
(169,662,o),
(223,484,o),
(223,380,qs),
(223,277,o),
(169,98,o),
(80,-43,o),
(25,-90,q),
(25,-95,l),
(343,-95,l),
(343,855,l)
);
}
);
vertWidth = 1000;
width = 1000;
}
);
note = uni3011;
unicode = 12305;
},
{
glyphname = braceleft.full;
lastChange = "2023-08-27 12:29:13 +0000";
layers = (
{
layerId = m01;
shapes = (
{
closed = 1;
nodes = (
(974,-5,l),
(945,-5,ls),
(911,-5,o),
(888,24,o),
(888,70,qs),
(888,114,o),
(892,198,o),
(892,247,qs),
(892,312,o),
(850,368,o),
(807,378,q),
(807,382,l),
(850,393,o),
(892,449,o),
(892,513,qs),
(892,563,o),
(888,648,o),
(888,691,qs),
(888,737,o),
(911,766,o),
(945,766,qs),
(974,766,l),
(974,857,l),
(902,857,ls),
(828,857,o),
(758,788,o),
(758,697,qs),
(758,659,o),
(764,602,o),
(769,547,o),
(769,512,qs),
(769,493,o),
(751,456,o),
(710,431,o),
(674,430,q),
(674,331,l),
(710,330,o),
(751,305,o),
(769,269,o),
(769,249,qs),
(769,214,o),
(764,159,o),
(758,102,o),
(758,63,qs),
(758,-27,o),
(828,-96,o),
(902,-96,qs),
(974,-96,l)
);
}
);
vertWidth = 1000;
width = 1000;
}
);
note = uniFF5B;
unicode = 65371;
},
{
glyphname = braceright.full;
lastChange = "2023-08-27 12:29:13 +0000";
layers = (
{
layerId = m01;
shapes = (
{
closed = 1;
nodes = (
(26,-5,l),
(55,-5,ls),
(90,-5,o),
(112,24,o),
(112,70,qs),
(112,114,o),
(108,198,o),
(108,247,qs),
(108,312,o),
(150,368,o),
(193,378,q),
(193,382,l),
(150,393,o),
(108,449,o),
(108,513,qs),
(108,563,o),
(112,648,o),
(112,691,qs),
(112,737,o),
(90,766,o),
(55,766,qs),
(26,766,l),
(26,857,l),
(98,857,ls),
(172,857,o),
(242,788,o),
(242,697,qs),
(242,659,o),
(237,602,o),
(231,547,o),
(231,512,qs),
(231,493,o),
(249,456,o),
(291,431,o),
(326,430,q),
(326,331,l),
(291,330,o),
(249,305,o),
(231,269,o),
(231,249,qs),
(231,214,o),
(237,159,o),
(242,102,o),
(242,63,qs),
(242,-27,o),
(172,-96,o),
(98,-96,qs),
(26,-96,l)
);
}
);
vertWidth = 1000;
width = 1000;
}
);
note = uniFF5D;
unicode = 65373;
},
{
glyphname = cornerbracketleft;
lastChange = "2023-08-27 12:29:13 +0000";
layers = (
{
layerId = m01;
shapes = (
{
closed = 1;
nodes = (
(778,220,l),
(778,725,l),
(975,725,l),
(975,855,l),
(635,855,l),
(635,220,l)
);
}
);
vertWidth = 1000;
width = 1000;
}
);
note = uni300C;
unicode = 12300;
},
{
glyphname = cornerbracketright;
lastChange = "2023-08-27 12:29:13 +0000";
layers = (
{
layerId = m01;
shapes = (
{
closed = 1;
nodes = (
(222,540,l),
(222,35,l),
(25,35,l),
(25,-95,l),
(365,-95,l),
(365,540,l)
);
}
);
vertWidth = 1000;
width = 1000;
}
);
note = uni300D;
unicode = 12301;
},
{
glyphname = dblanglebracketleft;
lastChange = "2023-08-27 12:29:13 +0000";
layers = (
{
layerId = m01;
shapes = (
{
closed = 1;
nodes = (
(797,825,l),
(697,855,l),
(512,380,l),
(697,-95,l),
(797,-65,l),
(622,380,l)
);
},
{
closed = 1;
nodes = (
(978,825,l),
(878,855,l),
(693,380,l),
(878,-95,l),
(978,-65,l),
(803,380,l)
);
}
);
vertWidth = 1000;
width = 1000;
}
);
note = uni300A;
unicode = 12298;
},
{
glyphname = dblanglebracketright;
lastChange = "2023-08-27 12:29:13 +0000";
layers = (
{
layerId = m01;
shapes = (
{
closed = 1;
nodes = (
(488,380,l),
(303,855,l),
(203,825,l),
(378,380,l),
(203,-65,l),
(303,-95,l)
);
},
{
closed = 1;
nodes = (
(307,380,l),
(122,855,l),
(22,825,l),
(197,380,l),
(22,-65,l),
(122,-95,l)
);
}
);
vertWidth = 1000;
width = 1000;
}
);
note = uni300B;
unicode = 12299;
},
{
glyphname = tortoiseshellbracketleft;
lastChange = "2023-08-27 12:29:13 +0000";
layers = (
{
layerId = m01;
shapes = (
{
closed = 1;
nodes = (
(982,-14,l),
(814,94,l),
(814,666,l),
(982,774,l),
(926,868,l),
(682,712,l),
(682,48,l),
(926,-108,l)
);
}
);
vertWidth = 1000;
width = 1000;
}
);
note = uni3014;
unicode = 12308;
},
{
glyphname = tortoiseshellbracketright;
lastChange = "2023-08-27 12:29:13 +0000";
layers = (
{
layerId = m01;
shapes = (
{
closed = 1;
nodes = (
(18,-14,l),
(186,94,l),
(186,666,l),
(18,774,l),
(74,868,l),
(318,712,l),
(318,48,l),
(74,-108,l)
);
}
);
vertWidth = 1000;
width = 1000;
}
);
note = uni3015;
unicode = 12309;
},
{
glyphname = whitecornerbracketleft;
lastChange = "2023-08-27 12:29:13 +0000";
layers = (
{
layerId = m01;
shapes = (
{
closed = 1;
nodes = (
(975,855,l),
(600,855,l),
(600,195,l),
(805,195,l),
(805,665,l),
(975,665,l)
);
},
{
closed = 1;
nodes = (
(925,715,l),
(755,715,l),
(755,245,l),
(650,245,l),
(650,805,l),
(925,805,l)
);
}
);
vertWidth = 1000;
width = 1000;
}
);
note = uni300E;
unicode = 12302;
},
{
glyphname = whitecornerbracketright;
lastChange = "2023-08-27 12:29:13 +0000";
layers = (
{
layerId = m01;
shapes = (
{
closed = 1;
nodes = (
(25,-95,l),
(400,-95,l),
(400,565,l),
(195,565,l),
(195,95,l),
(25,95,l)
);
},
{
closed = 1;
nodes = (
(75,45,l),
(245,45,l),
(245,515,l),
(350,515,l),
(350,-45,l),
(75,-45,l)
);
}
);
vertWidth = 1000;
width = 1000;
}
);
note = uni300F;
unicode = 12303;
},
{
glyphname = whitelenticularbracketleft;
lastChange = "2023-08-27 12:29:13 +0000";
layers = (
{
layerId = m01;
shapes = (
{
closed = 1;
nodes = (
(896,-41,o),
(778,88,o),
(712,267,o),
(712,380,qs),
(712,493,o),
(778,672,o),
(896,801,o),
(975,838,q),
(975,855,l),
(632,855,l),
(632,-95,l),
(975,-95,l),
(975,-78,l)
);
},
{
closed = 1;
nodes = (
(658,829,l),
(907,829,l),
(872,807,o),
(795,733,o),
(728,625,o),
(686,477,o),
(686,380,qs),
(686,283,o),
(728,135,o),
(795,27,o),
(872,-47,o),
(907,-69,q),
(658,-69,l)
);
}
);
vertWidth = 1000;
width = 1000;
}
);
note = uni3016;
unicode = 12310;
},
{
glyphname = whitelenticularbracketright;
lastChange = "2023-08-27 12:29:13 +0000";
layers = (
{
layerId = m01;
shapes = (
{
closed = 1;
nodes = (
(368,-95,l),
(368,855,l),
(25,855,l),
(25,838,l),
(104,801,o),
(222,672,o),
(288,493,o),
(288,380,qs),
(288,267,o),
(222,88,o),
(104,-41,o),
(25,-78,q),
(25,-95,l)
);
},
{
closed = 1;
nodes = (
(128,-47,o),
(205,27,o),
(272,135,o),
(314,283,o),
(314,380,qs),
(314,477,o),
(272,625,o),
(205,733,o),
(128,807,o),
(93,829,q),
(342,829,l),
(342,-69,l),
(93,-69,l)
);
}
);
vertWidth = 1000;
width = 1000;
}
);
note = uni3017;
unicode = 12311;
},
{
glyphname = anglebracketleft.vert;
lastChange = "2023-08-27 12:29:13 +0000";
layers = (
{
layerId = m01;
shapes = (
{
closed = 1;
nodes = (
(925,-65,l),
(975,54,l),
(500,335,l),
(25,54,l),
(75,-65,l),
(500,186,l)
);
}
);
vertWidth = 1000;
width = 1000;
}
);
note = uniFE3F;
unicode = 65087;
},
{
glyphname = anglebracketright.vert;
lastChange = "2023-08-27 12:29:13 +0000";
layers = (
{
layerId = m01;
shapes = (
{
closed = 1;
nodes = (
(75,825,l),
(25,706,l),
(500,425,l),
(975,706,l),
(925,825,l),
(500,574,l)
);
}
);
vertWidth = 1000;
width = 1000;
}
);
note = uniFE40;
unicode = 65088;
},
{
glyphname = blacklenticularbracketleft.vert;
lastChange = "2023-08-27 12:29:13 +0000";
layers = (
{
layerId = m01;
shapes = (
{
closed = 1;
nodes = (
(975,223,l),
(25,223,l),
(25,-95,l),
(30,-95,l),
(77,-40,o),
(218,49,o),
(397,103,o),
(500,103,qs),
(604,103,o),
(782,49,o),
(923,-40,o),
(970,-95,q),
(975,-95,l)
);
}
);
vertWidth = 1000;
width = 1000;
}
);
note = uniFE3B;
unicode = 65083;
},
{
glyphname = blacklenticularbracketright.vert;
lastChange = "2023-08-27 12:29:13 +0000";
layers = (
{
layerId = m01;
shapes = (
{
closed = 1;
nodes = (
(975,855,l),
(970,855,l),
(923,801,o),
(782,711,o),
(604,657,o),
(500,657,qs),
(397,657,o),
(218,711,o),
(77,801,o),
(30,855,q),
(25,855,l),
(25,537,l),
(975,537,l)
);
}
);
vertWidth = 1000;
width = 1000;
}
);
note = uniFE3C;
unicode = 65084;
},
{
glyphname = bracketleft.full;
lastChange = "2023-08-27 12:29:13 +0000";
layers = (
{
layerId = m01;
shapes = (
{
closed = 1;
nodes = (
(975,-95,l),
(975,-1,l),
(846,-1,l),
(846,761,l),
(975,761,l),
(975,855,l),
(714,855,l),
(714,-95,l)
);
}
);
vertWidth = 1000;
width = 1000;
}
);
note = uniFF3B;
unicode = 65339;
},
{
glyphname = bracketright.full;
lastChange = "2023-08-27 12:29:13 +0000";
layers = (
{
layerId = m01;
shapes = (
{
closed = 1;
nodes = (
(25,-95,l),
(25,-1,l),
(154,-1,l),
(154,761,l),
(25,761,l),
(25,855,l),
(286,855,l),
(286,-95,l)
);
}
);
vertWidth = 1000;
width = 1000;
}
);
note = uniFF3D;
unicode = 65341;
},
{
glyphname = cornerbracketleft.vert;
lastChange = "2023-08-27 12:29:13 +0000";
layers = (
{
layerId = m01;
shapes = (
{
closed = 1;
nodes = (
(290,109,l),
(832,109,l),
(832,-95,l),
(975,-95,l),
(975,245,l),
(290,245,l)
);
}
);
vertWidth = 1000;
width = 1000;
}
);
note = uniFE41;
unicode = 65089;
},
{
glyphname = cornerbracketright.vert;
lastChange = "2023-08-27 12:29:13 +0000";
layers = (
{
layerId = m01;
shapes = (
{
closed = 1;
nodes = (
(710,631,l),
(168,631,l),
(168,835,l),
(25,835,l),
(25,495,l),
(710,495,l)
);
}
);
vertWidth = 1000;
width = 1000;
}
);
note = uniFE42;
unicode = 65090;
},
{
glyphname = dblanglebracketleft.vert;
lastChange = "2023-08-27 12:29:13 +0000";
layers = (
{
layerId = m01;
shapes = (
{
closed = 1;
nodes = (
(945,83,l),
(975,183,l),
(500,368,l),
(25,183,l),
(55,83,l),
(500,258,l)
);
},
{
closed = 1;
nodes = (
(945,-98,l),
(975,2,l),
(500,187,l),
(25,2,l),
(55,-98,l),
(500,77,l)
);
}
);
vertWidth = 1000;
width = 1000;
}
);
note = uniFE3D;
unicode = 65085;
},
{
glyphname = dblanglebracketright.vert;
lastChange = "2023-08-27 12:29:13 +0000";
layers = (
{
layerId = m01;
shapes = (
{
closed = 1;
nodes = (
(55,677,l),
(25,577,l),
(500,392,l),
(975,577,l),
(945,677,l),
(500,502,l)
);
},
{
closed = 1;
nodes = (
(55,858,l),
(25,758,l),
(500,573,l),
(975,758,l),
(945,858,l),
(500,683,l)
);
}
);
vertWidth = 1000;
width = 1000;
}
);
note = uniFE3E;
unicode = 65086;
},
{
glyphname = parenleft.full;
lastChange = "2023-08-27 12:29:13 +0000";
layers = (
{
layerId = m01;
shapes = (
{
closed = 1;
nodes = (
(701,86,o),
(791,-54,o),
(841,-103,q),
(956,-54,l),
(910,-3,o),
(830,122,o),
(781,281,o),
(781,380,qs),
(781,480,o),
(830,638,o),
(910,764,o),
(956,814,q),
(841,863,l),
(791,814,o),
(701,674,o),
(645,492,o),
(645,380,qs),
(645,268,o)
);
}
);
vertWidth = 1000;
width = 1000;
}
);
note = uniFF08;
unicode = 65288;
},
{
glyphname = parenright.full;
lastChange = "2023-08-27 12:29:13 +0000";
layers = (
{
layerId = m01;
shapes = (
{
closed = 1;
nodes = (
(299,674,o),
(210,814,o),
(159,863,q),
(44,814,l),
(90,764,o),
(170,638,o),
(219,480,o),
(219,380,qs),
(219,281,o),
(170,122,o),
(90,-3,o),
(44,-54,q),
(159,-103,l),
(210,-54,o),
(299,86,o),
(355,268,o),
(355,380,qs),
(355,492,o)
);
}
);
vertWidth = 1000;
width = 1000;
}
);
note = uniFF09;
unicode = 65289;
},
{
glyphname = tortoiseshellbracketleft.vert;
lastChange = "2023-08-27 12:29:13 +0000";
layers = (
{
layerId = m01;
shapes = (
{
closed = 1;
nodes = (
(106,-102,l),
(214,66,l),
(786,66,l),
(894,-102,l),
(988,-46,l),
(832,198,l),
(168,198,l),
(12,-46,l)
);
}
);
vertWidth = 1000;
width = 1000;
}
);
note = uniFE39;
unicode = 65081;
},
{
glyphname = tortoiseshellbracketright.vert;
lastChange = "2023-08-27 12:29:13 +0000";
layers = (
{
layerId = m01;
shapes = (
{
closed = 1;
nodes = (
(106,862,l),
(214,694,l),
(786,694,l),
(894,862,l),
(988,806,l),
(832,562,l),
(168,562,l),
(12,806,l)
);
}
);
vertWidth = 1000;
width = 1000;
}
);
note = uniFE3A;
unicode = 65082;
},
{
glyphname = whitecornerbracketleft.vert;
lastChange = "2023-08-27 12:29:13 +0000";
layers = (
{
layerId = m01;
shapes = (
{
closed = 1;
nodes = (
(975,-95,l),
(975,265,l),
(315,265,l),
(315,75,l),
(775,75,l),
(775,-95,l)
);
},
{
closed = 1;
nodes = (
(825,-45,l),
(825,125,l),
(365,125,l),
(365,215,l),
(925,215,l),
(925,-45,l)
);
}
);
vertWidth = 1000;
width = 1000;
}
);
note = uniFE43;
unicode = 65091;
},
{
glyphname = whitecornerbracketright.vert;
lastChange = "2023-08-27 12:29:13 +0000";
layers = (
{
layerId = m01;
shapes = (
{
closed = 1;
nodes = (
(25,855,l),
(25,495,l),
(685,495,l),
(685,685,l),
(225,685,l),
(225,855,l)
);
},
{
closed = 1;
nodes = (
(175,805,l),
(175,635,l),
(635,635,l),
(635,545,l),
(75,545,l),
(75,805,l)
);
}
);
vertWidth = 1000;
width = 1000;
}
);
note = uniFE44;
unicode = 65092;
},
{
glyphname = whitelenticularbracketleft.vert;
lastChange = "2023-08-27 12:29:13 +0000";
layers = (
{
layerId = m01;
shapes = (
{
closed = 1;
nodes = (
(79,-16,o),
(208,102,o),
(387,168,o),
(500,168,qs),
(613,168,o),
(792,102,o),
(921,-16,o),
(958,-95,q),
(975,-95,l),
(975,248,l),
(25,248,l),
(25,-95,l),
(42,-95,l)
);
},
{
closed = 1;
nodes = (
(949,222,l),
(949,-27,l),
(927,8,o),
(853,85,o),
(745,152,o),
(597,194,o),
(500,194,qs),
(403,194,o),
(255,152,o),
(147,85,o),
(73,8,o),
(51,-27,q),
(51,222,l)
);
}
);
vertWidth = 1000;
width = 1000;
}
);
note = uniFE17;
unicode = 65047;
},
{
glyphname = whitelenticularbracketright.vert;
lastChange = "2023-08-27 12:29:13 +0000";
layers = (
{
layerId = m01;
shapes = (
{
closed = 1;
nodes = (
(25,512,l),
(975,512,l),
(975,855,l),
(958,855,l),
(921,776,o),
(792,658,o),
(613,592,o),
(500,592,qs),
(387,592,o),
(208,658,o),
(79,776,o),
(42,855,q),
(25,855,l)
);
},
{
closed = 1;
nodes = (
(73,752,o),
(147,675,o),
(255,608,o),
(403,566,o),
(500,566,qs),
(597,566,o),
(745,608,o),
(853,675,o),
(927,752,o),
(949,787,q),
(949,538,l),
(51,538,l),
(51,787,l)
);
}
);
vertWidth = 1000;
width = 1000;
}
);
note = uniFE18;
unicode = 65048;
},
{
glyphname = braceleft.full.vert;
lastChange = "2023-08-27 12:29:13 +0000";
layers = (
{
layerId = m01;
shapes = (
{
closed = 1;
nodes = (
(115,-94,l),
(115,-65,ls),
(115,-30,o),
(144,-8,o),
(190,-8,qs),
(234,-8,o),
(318,-12,o),
(367,-12,qs),
(432,-12,o),
(488,30,o),
(498,73,q),
(502,73,l),
(513,30,o),
(569,-12,o),
(633,-12,qs),
(683,-12,o),
(768,-8,o),
(811,-8,qs),
(857,-8,o),
(886,-30,o),
(886,-65,qs),
(886,-94,l),
(977,-94,l),
(977,-22,ls),
(977,52,o),
(908,122,o),
(817,122,qs),
(779,122,o),
(722,117,o),
(667,111,o),
(632,111,qs),
(613,111,o),
(576,129,o),
(551,171,o),
(550,206,q),
(451,206,l),
(450,171,o),
(425,129,o),
(389,111,o),
(369,111,qs),
(334,111,o),
(279,117,o),
(222,122,o),
(183,122,qs),
(93,122,o),
(24,52,o),
(24,-22,qs),
(24,-94,l)
);
}
);
vertWidth = 1000;
width = 1000;
}
);
note = uniFE37;
unicode = 65079;
},
{
glyphname = braceright.full.vert;
lastChange = "2023-08-27 12:29:13 +0000";
layers = (
{
layerId = m01;
shapes = (
{
closed = 1;
nodes = (
(885,854,l),
(885,825,ls),
(885,791,o),
(856,768,o),
(810,768,qs),
(766,768,o),
(682,772,o),
(633,772,qs),
(569,772,o),
(512,730,o),
(502,687,q),
(498,687,l),
(488,730,o),
(431,772,o),
(367,772,qs),
(317,772,o),
(233,768,o),
(189,768,qs),
(143,768,o),
(114,791,o),
(114,825,qs),
(114,854,l),
(23,854,l),
(23,782,ls),
(23,708,o),
(92,638,o),
(183,638,qs),
(222,638,o),
(278,644,o),
(333,649,o),
(368,649,qs),
(388,649,o),
(424,631,o),
(449,590,o),
(450,554,q),
(549,554,l),
(550,590,o),
(575,631,o),
(612,649,o),
(631,649,qs),
(666,649,o),
(721,644,o),
(778,638,o),
(817,638,qs),
(907,638,o),
(976,708,o),
(976,782,qs),
(976,854,l)
);
}
);
vertWidth = 1000;
width = 1000;
}
);
note = uniFE38;
unicode = 65080;
},
{
glyphname = bracketleft.full.vert;
lastChange = "2023-08-27 12:29:13 +0000";
layers = (
{
layerId = m01;
shapes = (
{
closed = 1;
nodes = (
(25,-95,l),
(119,-95,l),
(119,34,l),
(881,34,l),
(881,-95,l),
(975,-95,l),
(975,166,l),
(25,166,l)
);
}
);
vertWidth = 1000;
width = 1000;
}
);
note = uniFE47;
unicode = 65095;
},
{
glyphname = bracketright.full.vert;
lastChange = "2023-08-27 12:29:13 +0000";
layers = (
{
layerId = m01;
shapes = (
{
closed = 1;
nodes = (
(25,855,l),
(119,855,l),
(119,726,l),
(881,726,l),
(881,855,l),
(975,855,l),
(975,594,l),
(25,594,l)
);
}
);
vertWidth = 1000;
width = 1000;
}
);
note = uniFE48;
unicode = 65096;
},
{
glyphname = parenleft.full.vert;
lastChange = "2023-08-27 12:29:13 +0000";
layers = (
{
layerId = m01;
shapes = (
{
closed = 1;
nodes = (
(206,179,o),
(66,90,o),
(17,39,q),
(66,-76,l),
(117,-30,o),
(242,50,o),
(401,99,o),
(500,99,qs),
(600,99,o),
(758,50,o),
(884,-30,o),
(934,-76,q),
(983,39,l),
(934,90,o),
(794,179,o),
(612,235,o),
(500,235,qs),
(388,235,o)
);
}
);
vertWidth = 1000;
width = 1000;
}
);
note = uniFE35;
unicode = 65077;
},
{
glyphname = parenright.full.vert;
lastChange = "2023-08-27 12:29:13 +0000";
layers = (
{
layerId = m01;
shapes = (
{
closed = 1;
nodes = (
(794,581,o),
(934,671,o),
(983,721,q),
(934,836,l),
(884,790,o),
(758,710,o),
(600,661,o),
(500,661,qs),
(401,661,o),
(242,710,o),
(117,790,o),
(66,836,q),
(17,721,l),
(66,671,o),
(206,581,o),
(388,525,o),
(500,525,qs),
(612,525,o)
);
}
